<!-- icon666.com - MILLIONS vector ICONS FREE --><svg id="Icon" enable-background="new 0 0 110 110" viewBox="0 0 110 110" xmlns="http://www.w3.org/2000/svg"><path id="Music" d="m76 70c0 2.7-3.2 5-7 5s-7-2.3-7-5 3.2-5 7-5 7 2.3 7 5zm-30-25.5 30-5v-7.9l-30 5zm64 10.5c0 30.4-24.6 55-55 55s-55-24.6-55-55 24.6-55 55-55 55 24.6 55 55zm-28-27c0-.9-.4-1.7-1.1-2.3s-1.6-.8-2.4-.7l-36 6c-1.4.2-2.5 1.5-2.5 3v32.7c-2-1.1-4.4-1.7-7-1.7-7.2 0-13 4.9-13 11s5.8 11 13 11 13-4.9 13-11v-25.5l30-5v15.2c-2-1.1-4.4-1.7-7-1.7-7.2 0-13 4.9-13 11s5.8 11 13 11 13-4.9 13-11zm-49 43c-3.8 0-7 2.3-7 5s3.2 5 7 5 7-2.3 7-5-3.2-5-7-5z"></path></svg>