<!-- icon666.com - MILLIONS vector ICONS FREE --><svg id="line" viewBox="0 0 128 128" xmlns="http://www.w3.org/2000/svg"><path d="m26.458 73.852c4.443-1.727 7.784-6.2 7.293-10.907a1.944 1.944 0 0 0 -.035-.447l-4.205-21.076 26.052-12.662 1.682 8.432c-8.068-3.827-19.389 4.251-15.874 13.308 4.9 11.106 23.177 5.113 21.28-6.658l-6.951-34.822a2 2 0 0 0 -2.818-1.415l-29.833 14.139a2 2 0 0 0 -1.105 2.2l.717 3.592 1.206 6.045 4.385 21.972c-8.068-3.825-19.39 4.247-15.875 13.306 2.048 5.287 8.915 7.206 14.081 4.993zm2.242-36.484-.609-3.051 26.073-12.567.59 2.956zm29.408 10.776c-3.608 7.043-16.358 4.879-12.687-3.644a8.43 8.43 0 0 1 7.311-4.259c4.384-.141 7.542 3.975 5.376 7.903zm-5.826-35.827 1.074 5.383-26.071 12.566-1.113-5.576zm-36.194 55.05c-2.61-7.357 10.212-12.449 13.365-5.367 2.563 7.583-10.366 12.31-13.365 5.367z"></path><path d="m109.542 21.663a31.154 31.154 0 0 0 -14.529-8.687 2.026 2.026 0 0 0 -2.577 1.735l-1 11.3-2.162 24.458c-6.415-5.43-19.729-1.567-18.888 7.9 1.678 11.863 22.636 10.914 22.358-1.734l2.514-28.431c4.223.233 14.739 1.9 16.807 12.617a2.007 2.007 0 0 0 3.908.09c.097-.398 2.263-9.897-6.431-19.248zm-21.862 38.437c-3.291 4.3-12.665 3.155-13.318-2.172-.136-4 3.734-5.889 7.341-5.973 5.024-.126 9.131 4.413 5.977 8.145zm7.932-35.9.588-6.64a27.276 27.276 0 0 1 10.356 6.761 22.779 22.779 0 0 1 3.9 5.636c-4.411-4.025-10.395-5.519-14.844-5.757z"></path><path d="m100.459 75.942c-4.609 0-9.152 3.636-9.026 8.312-.01.016 0 31.839 0 31.861a2 2 0 1 0 4 0v-25.231c5.463 3.587 14.632.046 14.428-6.969-.106-4.509-4.332-8.093-9.402-7.973zm4.05 10.947c-4.062 3.789-12.382-.7-7.73-5.534 4.078-3.788 12.378.68 7.73 5.534z"></path><path d="m67.809 78.442-25.8 2.143a2 2 0 0 0 -1.809 1.669l-3.967 24.164c-5.3-4.606-15.614-1.367-15.458 6.244.4 9.531 15.493 10.92 18.164 1.68a2.02 2.02 0 0 0 .112-.4l3.6-21.907 21.717-1.949-1.782 10.853c-5.3-4.607-15.617-1.359-15.459 6.247.1 4.441 4.189 7.976 9.162 7.976 4.213.07 8.438-2.782 9.153-6.929l3.286-20.043 1.219-7.429a2.014 2.014 0 0 0 -2.138-2.319zm-37.727 38.194c-7.246-.188-6.785-8.242-.045-8.363 7.036.252 6.583 8.153.045 8.363zm34.95-30.625-21.717 1.949.578-3.518 21.693-1.8zm-8.6 25.151c-7.249-.166-6.78-8.251-.044-8.363 7.035.252 6.581 8.155.043 8.363z"></path></svg>