<!-- icon666.com - MILLIONS vector ICONS FREE --><svg viewBox="-8 0 480 480" xmlns="http://www.w3.org/2000/svg"><path d="m320 288v-144c0-2.296875-.984375-4.480469-2.703125-6-1.726563-1.507812-4.011719-2.210938-6.289063-1.9375l-128 16c-.40625.089844-.800781.214844-1.183593.378906-.425781.097656-.84375.226563-1.25.390625-.5.265625-.972657.585938-1.40625.953125-.34375.242188-.667969.507813-.96875.800782-.402344.46875-.746094.984374-1.03125 1.535156-.210938.292968-.402344.605468-.566407.925781-.390624.9375-.59375 1.941406-.601562 2.953125v112.207031c-6.882812-5.292969-15.316406-8.175781-24-8.207031-22.089844 0-40 17.910156-40 40s17.910156 40 40 40 40-17.910156 40-40v-88.9375l112-14v55.144531c-6.882812-5.292969-15.316406-8.175781-24-8.207031-22.089844 0-40 17.910156-40 40s17.910156 40 40 40 40-17.910156 40-40zm-168 40c-13.253906 0-24-10.746094-24-24s10.746094-24 24-24 24 10.746094 24 24-10.746094 24-24 24zm40-129.0625v-31.875l112-14v31.875zm64 89.0625c0-13.253906 10.746094-24 24-24s24 10.746094 24 24-10.746094 24-24 24-24-10.746094-24-24zm0 0"></path><path d="m408 192h-8v-8c0-4.417969-3.582031-8-8-8s-8 3.582031-8 8v8h-8c-4.417969 0-8 3.582031-8 8s3.582031 8 8 8h8v8c0 4.417969 3.582031 8 8 8s8-3.582031 8-8v-8h8c4.417969 0 8-3.582031 8-8s-3.582031-8-8-8zm0 0"></path><path d="m440 328c0 4.417969-3.582031 8-8 8s-8-3.582031-8-8 3.582031-8 8-8 8 3.582031 8 8zm0 0"></path><path d="m80 376h-8v-8c0-4.417969-3.582031-8-8-8s-8 3.582031-8 8v8h-8c-4.417969 0-8 3.582031-8 8s3.582031 8 8 8h8v8c0 4.417969 3.582031 8 8 8s8-3.582031 8-8v-8h8c4.417969 0 8-3.582031 8-8s-3.582031-8-8-8zm0 0"></path><path d="m200 24c0 4.417969-3.582031 8-8 8s-8-3.582031-8-8 3.582031-8 8-8 8 3.582031 8 8zm0 0"></path><path d="m428 0c-10.941406.0273438-21.261719 5.074219-28 13.695312-6.738281-8.621093-17.058594-13.6679682-28-13.695312-20.09375.246094-36.195312 16.707031-36 36.800781 0 19.808594 43.847656 75.199219 64 75.199219s64-55.390625 64-75.199219c.195312-20.09375-15.90625-36.554687-36-36.800781zm-27.960938 96c-10.773437-.800781-48.039062-46.703125-48.039062-59.199219 0-11.046875 8.953125-20 20-20s20 8.953125 20 20v2.589844c0 4.417969 3.582031 8 8 8s8-3.582031 8-8v-2.589844c0-11.046875 8.953125-20 20-20s20 8.953125 20 20c0 12.496094-37.265625 58.398438-47.960938 59.199219zm0 0"></path><path d="m112 136c-.007812-13.304688-8.25-25.214844-20.695312-29.914062-12.449219-4.699219-26.503907-1.207032-35.304688 8.769531-8.800781-9.976563-22.855469-13.46875-35.304688-8.769531-12.445312 4.699218-20.6874995 16.609374-20.695312 29.914062 0 17.375 37.777344 64 56 64s56-46.625 56-64zm-96 0c0-8.835938 7.164062-16 16-16s16 7.164062 16 16v2.160156c0 4.417969 3.582031 8 8 8s8-3.582031 8-8v-2.160156c0-8.835938 7.164062-16 16-16s16 7.164062 16 16c-.175781 10.03125-30.9375 46.824219-39.871094 48-9.191406-1.175781-39.953125-37.96875-40.128906-48zm0 0"></path><path d="m336 376c-10.0625.664062-19.097656 6.386719-24 15.199219-4.902344-8.8125-13.9375-14.535157-24-15.199219-19.199219 0-32 24.078125-32 40 0 17.375 37.777344 64 56 64s56-46.625 56-64c0-15.921875-12.800781-40-32-40zm-23.871094 88c-9.191406-1.183594-39.953125-37.976562-40.128906-48 0-9.910156 8.273438-24 16-24s16 14.089844 16 24v2.160156c0 4.417969 3.582031 8 8 8s8-3.582031 8-8v-2.160156c0-9.910156 8.273438-24 16-24s16 14.089844 16 24c-.175781 10.03125-30.9375 46.824219-39.871094 48zm0 0"></path></svg>